# xmcd CD database file
#
# Track frame offsets:
#	150
#	18750
#	34887
#
# Disc length: 713 seconds
#
# Revision: 0
# Processed by: cddbd v1.5PL3 Copyright (c) Steve Scherf et al.
# Submitted via: CDex 1.50beta9
#
DISCID=1802c703
DTITLE=SIAM SHADE - グレイシャルLOVE
DYEAR=1900
DGENRE=J-POP
TTITLE0=グレイシャルLOVE
TTITLE1=ブランコ
TTITLE2=グレイシャルLOVE(Original Karaoke)
EXTD=
EXTT0=
EXTT1=
EXTT2=
PLAYORDER=
